<?xml version="1.0" encoding="UTF-8" ?>
<svg version="1.1" width="16" height="16" xmlns="http://www.w3.org/2000/svg" shape-rendering="crispEdges">
<rect x="4" y="0" width="2" height="1" fill="#070D4C" />
<rect x="6" y="0" width="4" height="1" fill="#1A237E" />
<rect x="10" y="0" width="2" height="1" fill="#070D4C" />
<rect x="3" y="1" width="1" height="1" fill="#070D4C" />
<rect x="4" y="1" width="1" height="1" fill="#1A237E" />
<rect x="5" y="1" width="6" height="1" fill="#2D379A" />
<rect x="11" y="1" width="1" height="1" fill="#1A237E" />
<rect x="12" y="1" width="1" height="1" fill="#070D4C" />
<rect x="2" y="2" width="1" height="1" fill="#070D4C" />
<rect x="3" y="2" width="1" height="1" fill="#1A237E" />
<rect x="4" y="2" width="3" height="1" fill="#2D379A" />
<rect x="7" y="2" width="3" height="1" fill="#FFECB3" />
<rect x="10" y="2" width="2" height="1" fill="#2D379A" />
<rect x="12" y="2" width="1" height="1" fill="#1A237E" />
<rect x="13" y="2" width="1" height="1" fill="#070D4C" />
<rect x="1" y="3" width="1" height="2" fill="#070D4C" />
<rect x="2" y="3" width="1" height="2" fill="#1A237E" />
<rect x="3" y="3" width="2" height="1" fill="#2D379A" />
<rect x="5" y="3" width="1" height="1" fill="#FFECB3" />
<rect x="6" y="3" width="3" height="1" fill="#FFF8E1" />
<rect x="9" y="3" width="2" height="1" fill="#FFECB3" />
<rect x="11" y="3" width="2" height="1" fill="#2D379A" />
<rect x="13" y="3" width="1" height="3" fill="#1A237E" />
<rect x="14" y="3" width="1" height="1" fill="#070D4C" />
<rect x="0" y="4" width="1" height="2" fill="#070D4C" />
<rect x="3" y="4" width="1" height="2" fill="#2D379A" />
<rect x="4" y="4" width="1" height="2" fill="#FFECB3" />
<rect x="5" y="4" width="2" height="2" fill="#FFF8E1" />
<rect x="7" y="4" width="2" height="1" fill="#FFECB3" />
<rect x="9" y="4" width="2" height="1" fill="#2D379A" />
<rect x="11" y="4" width="1" height="1" fill="#FFECB3" />
<rect x="12" y="4" width="1" height="2" fill="#2D379A" />
<rect x="14" y="4" width="1" height="1" fill="#1A237E" />
<rect x="15" y="4" width="1" height="8" fill="#070D4C" />
<rect x="1" y="5" width="1" height="2" fill="#1A237E" />
<rect x="2" y="5" width="1" height="6" fill="#2D379A" />
<rect x="7" y="5" width="1" height="1" fill="#FFECB3" />
<rect x="8" y="5" width="1" height="2" fill="#2D379A" />
<rect x="9" y="5" width="1" height="5" fill="#1A237E" />
<rect x="10" y="5" width="2" height="1" fill="#2D379A" />
<rect x="14" y="5" width="1" height="3" fill="#070D4C" />
<rect x="0" y="6" width="1" height="4" fill="#1A237E" />
<rect x="3" y="6" width="1" height="1" fill="#FFECB3" />
<rect x="4" y="6" width="2" height="3" fill="#FFF8E1" />
<rect x="6" y="6" width="1" height="3" fill="#FFECB3" />
<rect x="7" y="6" width="1" height="4" fill="#2D379A" />
<rect x="10" y="6" width="1" height="3" fill="#1A237E" />
<rect x="11" y="6" width="1" height="1" fill="#2D379A" />
<rect x="12" y="6" width="1" height="2" fill="#1A237E" />
<rect x="13" y="6" width="1" height="1" fill="#070D4C" />
<rect x="1" y="7" width="1" height="2" fill="#2D379A" />
<rect x="3" y="7" width="1" height="3" fill="#FFE082" />
<rect x="8" y="7" width="1" height="2" fill="#1A237E" />
<rect x="11" y="7" width="1" height="1" fill="#1A237E" />
<rect x="13" y="7" width="1" height="1" fill="#1A237E" />
<rect x="11" y="8" width="3" height="1" fill="#2D379A" />
<rect x="14" y="8" width="1" height="4" fill="#1A237E" />
<rect x="1" y="9" width="1" height="3" fill="#1A237E" />
<rect x="4" y="9" width="1" height="1" fill="#FFECB3" />
<rect x="5" y="9" width="2" height="2" fill="#FFF8E1" />
<rect x="8" y="9" width="1" height="2" fill="#2D379A" />
<rect x="10" y="9" width="2" height="1" fill="#2D379A" />
<rect x="12" y="9" width="1" height="2" fill="#FFECB3" />
<rect x="13" y="9" width="1" height="3" fill="#2D379A" />
<rect x="0" y="10" width="1" height="2" fill="#070D4C" />
<rect x="3" y="10" width="1" height="2" fill="#2D379A" />
<rect x="4" y="10" width="1" height="1" fill="#FFE082" />
<rect x="7" y="10" width="1" height="1" fill="#FFECB3" />
<rect x="9" y="10" width="2" height="1" fill="#2D379A" />
<rect x="11" y="10" width="1" height="2" fill="#FFECB3" />
<rect x="2" y="11" width="1" height="2" fill="#1A237E" />
<rect x="4" y="11" width="1" height="2" fill="#2D379A" />
<rect x="5" y="11" width="2" height="1" fill="#FFECB3" />
<rect x="7" y="11" width="3" height="1" fill="#FFF8E1" />
<rect x="10" y="11" width="1" height="2" fill="#FFECB3" />
<rect x="12" y="11" width="1" height="2" fill="#2D379A" />
<rect x="1" y="12" width="1" height="1" fill="#070D4C" />
<rect x="3" y="12" width="1" height="2" fill="#1A237E" />
<rect x="5" y="12" width="1" height="2" fill="#2D379A" />
<rect x="6" y="12" width="4" height="1" fill="#FFECB3" />
<rect x="11" y="12" width="1" height="2" fill="#2D379A" />
<rect x="13" y="12" width="1" height="1" fill="#1A237E" />
<rect x="14" y="12" width="1" height="1" fill="#070D4C" />
<rect x="2" y="13" width="1" height="1" fill="#070D4C" />
<rect x="4" y="13" width="1" height="2" fill="#1A237E" />
<rect x="6" y="13" width="5" height="1" fill="#2D379A" />
<rect x="12" y="13" width="1" height="1" fill="#1A237E" />
<rect x="13" y="13" width="1" height="1" fill="#070D4C" />
<rect x="3" y="14" width="1" height="1" fill="#070D4C" />
<rect x="5" y="14" width="7" height="1" fill="#1A237E" />
<rect x="12" y="14" width="1" height="1" fill="#070D4C" />
<rect x="4" y="15" width="8" height="1" fill="#070D4C" />
</svg>